<svg xmlns="http://www.w3.org/2000/svg" enable-background="new 0 0 55 55" viewBox="0 0 55 55"><path d="M13.439 9.547c0 1.381-1.127 2.5-2.5 2.5-1.381 0-2.5-1.119-2.5-2.5s1.119-2.5 2.5-2.5C12.312 7.047 13.439 8.166 13.439 9.547zM21.939 9.547c0 1.381-1.119 2.5-2.5 2.5-1.373 0-2.5-1.119-2.5-2.5s1.127-2.5 2.5-2.5C20.82 7.047 21.939 8.166 21.939 9.547z" fill="#34a853" class="color000000 svgShape"></path><path d="M49.426,52.125H5.575c-1.489,0-2.7-1.211-2.7-2.7V5.574c0-1.488,1.211-2.699,2.7-2.699h43.851
				c1.488,0,2.699,1.211,2.699,2.699v43.851C52.125,50.914,50.914,52.125,49.426,52.125z M5.575,4.375c-0.662,0-1.2,0.538-1.2,1.199
				v43.851c0,0.662,0.538,1.2,1.2,1.2h43.851c0.661,0,1.199-0.538,1.199-1.2V5.574c0-0.661-0.538-1.199-1.199-1.199H5.575z" fill="#34a853" class="color000000 svgShape"></path><path d="M45.995 10.089h-18.37c-.414 0-.75-.336-.75-.75s.336-.75.75-.75h18.37c.414 0 .75.336.75.75S46.409 10.089 45.995 10.089zM45.769 15.297H9.239c-1.23 0-2.23 1-2.23 2.23v29.14c0 1.23 1 2.22 2.23 2.22h36.53c1.22 0 2.22-.99 2.22-2.22v-29.14C47.989 16.297 46.989 15.297 45.769 15.297zM16.9 27.702l5.111-3.865c.329-.252.801-.185 1.051.146.249.33.185.8-.146 1.05l-4.32 3.267 4.32 3.268c.331.25.396.72.146 1.051-.251.331-.724.394-1.051.146L16.9 28.898C16.503 28.598 16.504 28.001 16.9 27.702zM21.507 41.55c-.361-.203-.489-.66-.287-1.021l9.06-16.151c.203-.361.66-.49 1.021-.288.361.203.489.66.287 1.021l-9.06 16.151C22.326 41.624 21.868 41.752 21.507 41.55zM36.497 36.559l-5.111 3.865c-.326.248-.799.187-1.051-.146-.249-.33-.185-.8.146-1.05l4.32-3.267-4.32-3.268c-.331-.25-.395-.72-.146-1.051.249-.33.721-.397 1.051-.146l5.111 3.866C36.894 35.662 36.893 36.259 36.497 36.559z" fill="#34a853" class="color000000 svgShape"></path></svg>