<svg xmlns="http://www.w3.org/2000/svg" width="32" height="32" id="box"><path fill="#fcd062" fill-rule="evenodd" d="M15.688 15.987V30.99l-.01.01L4.01 26.01 4 25.993V10.991l.01.018 11.667 4.99z"></path><path fill="#f8aa3a" fill-rule="evenodd" d="m27.375 10.986-.01.018-11.667 4.99v15.002l11.667-4.99.01-.018V10.986z"></path><path fill="#f8c253" fill-rule="evenodd" d="m27.365 10.992-11.667-4.99h-.02L4.01 10.992v.012l11.667 4.99z"></path><path fill="none" stroke="#34485c" stroke-linecap="round" stroke-linejoin="round" d="m23.528 24.504-2.917 1.247L17.695 27m2.916-3.243-2.916 1.248"></path><path fill="#f8b84e" fill-rule="evenodd" d="m4 11-4 4 11.7 5 4-4zm15.7-9-4 4 11.7 5 4-4zm7.7 9 4 4-11.7 5-4-4zM11.7 2l4 4L4 11 0 7z"></path></svg>